<svg width="151" height="40" viewBox="0 0 151 40" fill="none" xmlns="http://www.w3.org/2000/svg">
<path d="M44.6938 28.0129C38.0732 34.6335 27.3391 34.6335 20.7185 28.0129C14.098 21.3924 14.0979 10.6583 20.7185 4.0377C27.3391 -2.58288 28.0036 7.48673 34.6242 14.1073C41.2447 20.7279 51.3143 21.3923 44.6938 28.0129Z" fill="#A692CB"/>
<g style="mix-blend-mode:multiply">
<path d="M27.513 4.03774C34.1336 10.6583 34.1336 21.3924 27.5131 28.013C20.8925 34.6336 10.1584 34.6336 3.53782 28.013C-3.08276 21.3924 6.98685 20.7279 13.6074 14.1074C20.228 7.48677 20.8925 -2.58283 27.513 4.03774Z" fill="#A692CB"/>
</g>
<path d="M56.3688 26.0787V8.50181H63.6315C63.8024 8.50181 64.0221 8.50995 64.2906 8.52622C64.5592 8.53436 64.8074 8.55877 65.0352 8.59946C66.0524 8.75407 66.8906 9.09178 67.5497 9.61257C68.217 10.1334 68.7093 10.7925 69.0266 11.59C69.3521 12.3793 69.5149 13.2582 69.5149 14.2265C69.5149 15.1867 69.3521 16.0656 69.0266 16.8631C68.7011 17.6524 68.2048 18.3075 67.5375 18.8283C66.8784 19.3491 66.0443 19.6868 65.0352 19.8414C64.8074 19.8739 64.5551 19.8983 64.2784 19.9146C64.0099 19.9309 63.7943 19.939 63.6315 19.939H59.3105V26.0787H56.3688ZM59.3105 17.1926H63.5094C63.6722 17.1926 63.8553 17.1845 64.0587 17.1682C64.2622 17.1519 64.4493 17.1194 64.6202 17.0706C65.1085 16.9485 65.4909 16.7329 65.7676 16.4236C66.0524 16.1144 66.2518 15.7645 66.3657 15.3739C66.4878 14.9833 66.5488 14.6008 66.5488 14.2265C66.5488 13.8522 66.4878 13.4697 66.3657 13.0791C66.2518 12.6804 66.0524 12.3264 65.7676 12.0172C65.4909 11.708 65.1085 11.4923 64.6202 11.3703C64.4493 11.3214 64.2622 11.293 64.0587 11.2848C63.8553 11.2685 63.6722 11.2604 63.5094 11.2604H59.3105V17.1926Z" fill="#595984"/>
<path d="M72.2045 10.8942V8.19666H75.1461V10.8942H72.2045ZM72.2045 26.0787V12.896H75.1461V26.0787H72.2045Z" fill="#595984"/>
<path d="M84.3441 32.3039C83.6117 32.3039 82.9078 32.19 82.2324 31.9621C81.5651 31.7343 80.963 31.4047 80.4259 30.9734C79.8888 30.5503 79.4494 30.0376 79.1076 29.4354L81.8174 28.0928C82.0697 28.5729 82.4236 28.9268 82.8793 29.1547C83.3432 29.3907 83.8355 29.5087 84.3563 29.5087C84.9666 29.5087 85.5118 29.3988 85.9919 29.1791C86.472 28.9675 86.8423 28.6502 87.1027 28.227C87.3712 27.812 87.4974 27.2912 87.4811 26.6646V22.9173H87.8473V12.896H90.4228V26.7135C90.4228 27.0471 90.4065 27.3645 90.3739 27.6655C90.3495 27.9748 90.3048 28.2758 90.2397 28.5688C90.0444 29.4232 89.6701 30.1231 89.1167 30.6683C88.5634 31.2216 87.8757 31.6326 87.0539 31.9011C86.2401 32.1696 85.3369 32.3039 84.3441 32.3039ZM84.0878 26.4449C82.8753 26.4449 81.8174 26.1398 80.9141 25.5295C80.0109 24.9191 79.3111 24.0891 78.8147 23.0394C78.3183 21.9897 78.0701 20.8057 78.0701 19.4874C78.0701 18.1528 78.3183 16.9648 78.8147 15.9232C79.3192 14.8734 80.0312 14.0475 80.9508 13.4453C81.8703 12.835 82.9526 12.5299 84.1976 12.5299C85.4508 12.5299 86.5005 12.835 87.3468 13.4453C88.2012 14.0475 88.8482 14.8734 89.2876 15.9232C89.727 16.9729 89.9467 18.161 89.9467 19.4874C89.9467 20.7975 89.727 21.9815 89.2876 23.0394C88.8482 24.0891 88.1931 24.9191 87.3224 25.5295C86.4517 26.1398 85.3735 26.4449 84.0878 26.4449ZM84.5394 23.8084C85.3287 23.8084 85.9634 23.6294 86.4436 23.2713C86.9318 22.9051 87.2858 22.3965 87.5055 21.7455C87.7333 21.0945 87.8473 20.3418 87.8473 19.4874C87.8473 18.6248 87.7333 17.8721 87.5055 17.2292C87.2858 16.5782 86.9399 16.0737 86.468 15.7157C85.996 15.3495 85.3857 15.1664 84.637 15.1664C83.8477 15.1664 83.1967 15.3617 82.684 15.7523C82.1714 16.1348 81.793 16.6556 81.5489 17.3147C81.3047 17.9657 81.1827 18.6899 81.1827 19.4874C81.1827 20.293 81.3007 21.0254 81.5367 21.6845C81.7808 22.3355 82.151 22.8522 82.6474 23.2347C83.1438 23.6172 83.7745 23.8084 84.5394 23.8084Z" fill="#595984"/>
<path d="M98.7892 26.4571C97.8127 26.4571 97.0071 26.2944 96.3723 25.9689C95.7376 25.6434 95.2331 25.2284 94.8588 24.7238C94.4844 24.2193 94.2078 23.6823 94.0287 23.1126C93.8497 22.543 93.7317 22.0059 93.6748 21.5014C93.6259 20.9887 93.6015 20.5737 93.6015 20.2564V12.896H96.5798V19.2433C96.5798 19.6501 96.6083 20.1099 96.6653 20.6226C96.7222 21.1271 96.8524 21.6153 97.0559 22.0873C97.2675 22.5511 97.5767 22.9336 97.9836 23.2347C98.3986 23.5358 98.956 23.6863 99.6558 23.6863C100.03 23.6863 100.4 23.6253 100.767 23.5032C101.133 23.3812 101.462 23.1737 101.755 22.8807C102.056 22.5796 102.296 22.1687 102.475 21.6479C102.654 21.1271 102.744 20.468 102.744 19.6705L104.489 20.4151C104.489 21.538 104.27 22.5552 103.83 23.4666C103.399 24.378 102.76 25.1063 101.914 25.6515C101.068 26.1886 100.026 26.4571 98.7892 26.4571ZM103.098 26.0787V21.9897H102.744V12.896H105.698V26.0787H103.098Z" fill="#595984"/>
<path d="M115.12 26.4449C113.786 26.4449 112.614 26.156 111.605 25.5783C110.596 25.0005 109.807 24.199 109.237 23.1737C108.676 22.1483 108.395 20.9684 108.395 19.6339C108.395 18.1935 108.672 16.9444 109.225 15.8866C109.778 14.8206 110.547 13.9946 111.532 13.4087C112.516 12.8228 113.656 12.5299 114.95 12.5299C116.317 12.5299 117.476 12.8513 118.428 13.4941C119.389 14.1289 120.101 15.0281 120.564 16.1917C121.028 17.3554 121.203 18.7265 121.089 20.3052H118.172V19.2311C118.164 17.7989 117.912 16.7532 117.415 16.0941C116.919 15.4349 116.138 15.1054 115.072 15.1054C113.867 15.1054 112.972 15.4797 112.386 16.2283C111.8 16.9688 111.507 18.0552 111.507 19.4874C111.507 20.8219 111.8 21.8554 112.386 22.5878C112.972 23.3201 113.827 23.6863 114.95 23.6863C115.674 23.6863 116.296 23.5276 116.817 23.2103C117.346 22.8848 117.753 22.4169 118.038 21.8066L120.943 22.6854C120.438 23.8735 119.657 24.7971 118.599 25.4562C117.55 26.1154 116.39 26.4449 115.12 26.4449ZM110.58 20.3052V18.0837H119.649V20.3052H110.58Z" fill="#595984"/>
<path d="M129.635 26.4449C128.317 26.4449 127.165 26.1479 126.181 25.5539C125.196 24.9598 124.431 24.142 123.886 23.1004C123.349 22.0507 123.08 20.8463 123.08 19.4874C123.08 18.104 123.357 16.8915 123.91 15.8499C124.464 14.8083 125.233 13.9946 126.217 13.4087C127.202 12.8228 128.341 12.5299 129.635 12.5299C130.962 12.5299 132.117 12.8269 133.102 13.4209C134.086 14.0149 134.851 14.8368 135.397 15.8866C135.942 16.9282 136.214 18.1284 136.214 19.4874C136.214 20.8545 135.938 22.0629 135.384 23.1126C134.839 24.1542 134.074 24.972 133.09 25.5661C132.105 26.152 130.953 26.4449 129.635 26.4449ZM129.635 23.6863C130.807 23.6863 131.678 23.2957 132.247 22.5145C132.817 21.7333 133.102 20.7243 133.102 19.4874C133.102 18.2098 132.813 17.1926 132.235 16.4358C131.657 15.6709 130.791 15.2885 129.635 15.2885C128.846 15.2885 128.195 15.4675 127.682 15.8255C127.178 16.1754 126.803 16.6678 126.559 17.3025C126.315 17.9291 126.193 18.6574 126.193 19.4874C126.193 20.765 126.482 21.7862 127.06 22.5511C127.646 23.3079 128.504 23.6863 129.635 23.6863Z" fill="#595984"/>
<path d="M148.022 26.0787V19.7315C148.022 19.3165 147.993 18.8567 147.936 18.3522C147.879 17.8477 147.745 17.3635 147.533 16.8997C147.33 16.4277 147.021 16.0412 146.606 15.7401C146.199 15.439 145.646 15.2885 144.946 15.2885C144.571 15.2885 144.201 15.3495 143.835 15.4715C143.469 15.5936 143.135 15.8052 142.834 16.1063C142.541 16.3992 142.305 16.8061 142.126 17.3269C141.947 17.8396 141.858 18.4987 141.858 19.3043L140.112 18.5597C140.112 17.4367 140.328 16.4196 140.759 15.5082C141.198 14.5968 141.841 13.8725 142.688 13.3355C143.534 12.7903 144.576 12.5176 145.812 12.5176C146.789 12.5176 147.594 12.6804 148.229 13.0059C148.864 13.3314 149.368 13.7464 149.743 14.2509C150.117 14.7555 150.394 15.2925 150.573 15.8621C150.752 16.4318 150.866 16.9729 150.915 17.4856C150.972 17.9901 151 18.401 151 18.7184V26.0787H148.022ZM138.879 26.0787V12.896H141.504V16.9851H141.858V26.0787H138.879Z" fill="#595984"/>
</svg>
